<?xml version="1.0" encoding="utf-8"?>
<!-- Generator: Adobe Illustrator 24.0.1, SVG Export Plug-In . SVG Version: 6.00 Build 0)  -->
<svg version="1.1" id="Layer_1" xmlns="http://www.w3.org/2000/svg" xmlns:xlink="http://www.w3.org/1999/xlink" x="0px" y="0px"
	 viewBox="0 0 783 737" style="enable-background:new 0 0 783 737;" xml:space="preserve">
<style type="text/css">
	.st0{fill:#004444;}
</style>
<g>
	<g>
		<path class="st0" d="M250.3,65.93c0,22.62-0.7,44.88,0.28,67.07c0.53,12.08-5.08,19.55-13.5,26.21
			c-7.88,6.24-16.8,8.18-25.62,2.99c-9.49-5.58-18.76-11.93-18.74-24.99c0.04-30.28-0.32-60.56,0.25-90.83
			c0.14-7.71,2.32-15.68,5.06-22.98c3.14-8.36,9.79-12.38,19.38-12.34c66.06,0.25,132.14-0.62,198.18,0.67
			c21.41,0.42,43.54,3.58,63.9,10.02c57.25,18.12,89.24,60.93,104.74,116.82c14.07,50.78,4.85,98.02-26.1,140.85
			c-1.04,1.44-2.01,2.94-2.63,3.84c45.68,61.11,40.6,125.15,11.11,189.23c-18.32,39.8-54.14,60.78-95.08,71.65
			c-20.74,5.51-42.65,8.6-64.11,9.02c-59.62,1.16-119.27,0.35-178.91,0.29c-3.35,0-6.75-0.02-10.04-0.54
			c-14.72-2.34-22.46-11.45-22.46-26.44c-0.03-68.2-0.02-136.41-0.01-204.61c0-17.8,19.29-31.4,36.31-25.6
			c11.75,4,18.02,12.78,18.02,25.23c0,54.14,0,108.27,0,162.41c0,3.61,0,7.22,0,11.47c3.73,0.2,6.69,0.49,9.64,0.49
			c44.04,0.01,88.09,0.41,132.13-0.17c38.14-0.5,74.75-8.53,103.88-34.58c38.11-34.08,49.41-86.03,19.92-131.65
			c-1.61-2.49-3.58-4.75-5.49-7.26c-38.73,31.2-84.81,38.75-131.39,44.56c-10.58,1.32-21.34,2.03-31.99,1.87
			c-18.44-0.28-27.75-10.5-28.18-28.7c-0.9-37.57-1.98-75.14-3.25-112.69c-0.77-22.8,7.51-31.56,30.23-32.65
			c60.09-2.87,114.71,13.38,164.73,46.21c0.74,0.48,1.6,0.78,3.19,1.53c15.78-20.9,20.37-44.33,17.09-69.85
			c-7.49-58.32-45.36-87.19-98.7-98.62c-22.74-4.88-46.64-4.95-70.07-5.89c-35.42-1.43-70.88-1.71-106.33-2.45
			C254.25,65.46,252.79,65.72,250.3,65.93z M373.71,310.64c33.39,0.04,81.82-14.25,94.9-28.39c-27.52-23.43-60.69-26.72-94.9-29.22
			C373.71,272.89,373.71,291.39,373.71,310.64z"/>
		<path class="st0" d="M263.46,243.81c0.01,17.72-13.53,31.5-31.13,31.66c-18.05,0.17-32.22-13.73-32.24-31.61
			c-0.01-17.64,14.65-32.2,32.19-31.95C249.64,212.15,263.45,226.28,263.46,243.81z"/>
	</g>
	<g>
		<path class="st0" d="M119.43,727.92c-5.6,0-10.95,0-17.22,0c0-29.54,0-58.76,0-87.98c-0.66-0.05-1.31-0.11-1.97-0.16
			c-4.55,29.12-9.1,58.23-13.74,87.95c-5.14,0-10.19,0-16.08,0c-4.52-28.96-9.06-58.02-13.6-87.08c-0.66,0.06-1.32,0.11-1.98,0.17
			c0,28.79,0,57.57,0,86.95c-5.92,0-10.92,0-16.44,0c0-41.64,0-83.07,0-125.02c9.04,0,17.78,0,27.55,0
			c4.07,28.79,8.16,57.71,12.25,86.63c0.63,0.07,1.26,0.14,1.88,0.2c4.12-28.91,8.25-57.83,12.41-86.99c9.14,0,17.64,0,26.94,0
			C119.43,644,119.43,685.41,119.43,727.92z"/>
		<path class="st0" d="M216.7,727.92c-5.6,0-10.95,0-17.22,0c0-29.54,0-58.76,0-87.98c-0.66-0.05-1.31-0.11-1.97-0.16
			c-4.55,29.12-9.1,58.23-13.74,87.95c-5.14,0-10.19,0-16.08,0c-4.52-28.96-9.06-58.02-13.6-87.08c-0.66,0.06-1.32,0.11-1.98,0.17
			c0,28.79,0,57.57,0,86.95c-5.92,0-10.92,0-16.44,0c0-41.64,0-83.07,0-125.02c9.04,0,17.78,0,27.55,0
			c4.07,28.79,8.16,57.71,12.25,86.63c0.63,0.07,1.26,0.14,1.88,0.2c4.12-28.91,8.25-57.83,12.41-86.99c9.14,0,17.64,0,26.94,0
			C216.7,644,216.7,685.41,216.7,727.92z"/>
		<path class="st0" d="M367.22,727.89c-6.21,0-12.21,0-19.09,0c-7.5-28.24-15.05-56.67-22.6-85.11c-0.6,0.04-1.19,0.09-1.79,0.13
			c0,28.03,0,56.06,0,84.76c-6.4,0-11.66,0-17.41,0c0-41.58,0-82.98,0-124.92c8.09,0,15.88,0,24.24,0
			c6.12,23.96,12.21,47.8,18.29,71.63c0.65-0.04,1.3-0.08,1.95-0.12c0-23.66,0-47.32,0-71.5c6.06,0,10.84,0,16.41,0
			C367.22,644.19,367.22,685.8,367.22,727.89z"/>
		<path class="st0" d="M496.49,660.96c14.27,11.61,18.7,39.87,9.28,55.41c-4.98,8.22-13.05,11.07-21.66,11.64
			c-11.21,0.74-22.51,0.18-34.36,0.18c0-42.07,0-83.46,0-126.42c13.66,0.71,26.99,0.96,40.23,2.23c9.27,0.89,15.42,7.29,16.59,16.05
			C508.53,634.73,511.79,650.32,496.49,660.96z M469.05,713.04c8-2.7,18.8-3.74,19.57-7.08c2.19-9.56,1.9-20.51-0.81-29.94
			c-0.99-3.44-11.55-4.13-18.76-6.4C469.05,684.88,469.05,697.25,469.05,713.04z M468.86,653.71c7.29-0.48,16.05,2.76,18.2-5.59
			c1.99-7.71,1.54-17.01-1.07-24.48c-1.08-3.08-10.63-3.18-17.13-4.84C468.86,631.7,468.86,642.01,468.86,653.71z"/>
		<path class="st0" d="M232.53,602.67c6.39,0,11.77,0,17.89,0c0.17,3.67,0.44,6.94,0.44,10.21c0.04,26.28,0.01,52.57,0.03,78.85
			c0,3.05-0.05,6.13,0.25,9.16c0.66,6.71,2.92,11.92,11.16,11.47c8.2-0.45,10-5.94,10.03-12.6c0.09-28.42,0.05-56.85,0.05-85.27
			c0-3.64,0-7.27,0-11.58c6.21,0,11.79,0,18.4,0c0,15.36,0,30.55,0,45.74c0,16.81,0.13,33.62-0.03,50.43
			c-0.23,23.98-16.92,36.19-39.99,29.58c-11.13-3.19-17.7-11.22-17.94-21.88C232.05,672.33,232.53,637.85,232.53,602.67z"/>
		<path class="st0" d="M383.69,602.49c17.83,0,34.9,0,52.68,0c0,5.57,0,10.88,0,17.21c-10.79,0-21.6,0-33.07,0
			c0,11.48,0,21.99,0,33.7c8.48,0,17.12,0,26.19,0c0,6.5,0,11.81,0,17.98c-8.88,0-17.3,0-26.28,0c0,13.19,0,25.54,0,38.85
			c10.92,0,21.75,0,33.21,0c0,6.27,0,11.59,0,17.53c-17.45,0-34.72,0-52.74,0C383.69,686.41,383.69,644.82,383.69,602.49z"/>
		<path class="st0" d="M678.12,619.94c0,11.69,0,22.01,0,33.27c8.59,0,16.99,0,26.2,0c0,6.2,0,11.48,0,17.71
			c-8.22,0-16.63,0-25.77,0c0,13.5,0,26.09,0,39.43c10.82,0,21.42,0,32.83,0c0,6.02,0,11.31,0,17.25c-17.36,0-34.58,0-52.4,0
			c0-41.46,0-82.84,0-124.73c17.29,0,34.3,0,52.27,0c0,5.35,0,10.84,0,17.07C700.27,619.94,689.67,619.94,678.12,619.94z"/>
		<path class="st0" d="M779.67,636.03c-7.06,0-12.14,0-17.77,0c-0.31-3.64,0.4-7.5-1.11-10.04c-1.9-3.19-5.59-7.3-8.57-7.36
			c-3.53-0.07-8.81,2.94-10.36,6.08c-3.74,7.56-0.72,15.19,4.39,21.21c5.51,6.49,11.83,12.33,18.14,18.07
			c12.92,11.75,17.01,26.3,14.53,43.16c-2.05,13.92-12.3,22.45-27.59,22.89c-15.57,0.45-26.17-7.19-28.82-21.11
			c-0.96-5.05-1.2-10.23-1.87-16.27c6.08,0,11.35,0,17.54,0c0.28,3.08,0.38,6.34,0.89,9.53c1.03,6.46,4.05,10.61,11.49,10.34
			c7.7-0.28,9.87-5.21,10.29-11.49c0.62-9.11-3.15-16.64-9.46-22.98c-6.67-6.71-13.69-13.1-20.07-20.07
			c-9.99-10.9-11.13-24.22-8.29-37.87c2.55-12.25,13.32-19.46,27.45-19.6c14.18-0.14,23.6,6.09,26.94,18.59
			C778.81,624.28,778.89,629.79,779.67,636.03z"/>
		<path class="st0" d="M513.26,602.96c20.12-1.58,20.11-1.57,25.02,15.56c2.75,9.6,5.53,19.2,10.38,29.15
			c1.3-4.03,2.68-8.04,3.88-12.09c1.81-6.13,3.48-12.3,5.25-18.44c4.4-15.32,4.41-15.32,22.46-14.35
			c-12.83,40.57-31.7,79.85-21.83,124.67c-8.03,0-13.94,0-22.3,0C544.18,683.71,528.07,643.91,513.26,602.96z"/>
		<path class="st0" d="M647.78,602.95c0,5.77,0,10.84,0,16.79c-6.7,0-12.99,0-20.59,0c0,36.36,0,71.88,0,107.93
			c-6.64,0-11.98,0-18.62,0c0-35.59,0-71.11,0-107.43c-7.57,0-13.86,0-20.86,0c0-6.1,0-11.39,0-17.29
			C607.5,602.95,627.19,602.95,647.78,602.95z"/>
		<path class="st0" d="M21.99,728.02c-6.38,0-12.1,0-18.39,0c0-41.68,0-83.02,0-125.08c5.78,0,11.72,0,18.39,0
			C21.99,644.13,21.99,685.7,21.99,728.02z"/>
	</g>
</g>
</svg>
