<?xml version="1.0" encoding="utf-8"?>
<!-- Generator: Adobe Illustrator 24.0.1, SVG Export Plug-In . SVG Version: 6.00 Build 0)  -->
<svg version="1.1" id="Layer_1" xmlns="http://www.w3.org/2000/svg" xmlns:xlink="http://www.w3.org/1999/xlink" x="0px" y="0px"
     viewBox="0 0 783 1080" style="enable-background:new 0 0 783 1080;" xml:space="preserve">
<style type="text/css">
    .st0{fill:#ffffff;}
</style>
<g>
    <g>
        <path class="st0" d="M631.94,460.91c33.73-47.62,41-98.69,30.22-154.78c-22.35-116.3-105.89-162.72-209.86-180.89
            c-53.49-9.35-109.12-7.4-163.82-8.63c-57.71-1.29-115.48-0.29-175.88-0.29c0,3.51,0,9.9,0,16.29c0,39.18,0.05,78.35-0.01,117.53
            c-0.04,28.85-27.66,57.99-54.96,58.12c-28.88,0.14-58.21-28.29-58.32-57.25c-0.23-59.07-0.47-118.14,0.26-177.19
            c0.16-13.01,2.84-26.47,7-38.83C13.71,13.78,27.85,5.23,50.51,5.23c128.38,0.01,256.76-0.69,385.13,0.28
            c71.38,0.54,140.51,13.11,200.88,54.44c81.18,55.58,125,135.41,141.57,230.37c16.19,92.77-7.57,176.63-65.11,251.83
            c6.93,9.25,14.15,18.02,20.44,27.42c47.14,70.46,52.59,148.5,39.7,229.13c-9.21,57.58-26.1,112.56-64.62,158.49
            c-54.8,65.33-127.87,96.61-209.49,110.02c-31.89,5.24-64.7,6.43-97.11,6.65c-112.1,0.73-224.21,0.22-336.31,0.18
            c-41.75-0.02-60.08-18.56-60.08-60.74c-0.01-131.99,0-263.99-0.01-395.98c0-39.17,44.9-65.66,79.4-46.47
            c18.23,10.14,28.62,23.44,28.3,47.25c-1.41,106.06-0.61,212.15-0.61,318.23c0,7.13,0,14.26,0,22.66
            c6.52,0.47,11.73,1.18,16.93,1.18c89.2,0.03,178.43,1.22,267.6-0.45c73.79-1.38,144.86-17.6,200.62-68.93
            C673.01,821.48,691.76,723.8,638,635.6c-3.67-6.02-8.31-11.45-12.82-17.58c-67.1,54.96-146.78,72.15-228.09,84.14
            c-28.52,4.21-57.45,6.74-86.26,7.59c-43.63,1.28-62.27-18.36-63.29-61.56c-1.72-72.84-3.95-145.67-6.35-218.49
            c-1.45-44.11,14.77-60.66,58.85-62.94c115.12-5.96,220.2,24.16,317.02,85.52C621.59,455.15,626.33,457.67,631.94,460.91z
             M545.25,541.96c-56.23-49.21-122.07-54.36-189.06-60.54c0,39.59,0,76.48,0,115.42C422.09,589.77,485.42,579.64,545.25,541.96z"/>
    </g>
    <g>
        <path class="st0" d="M75.94,525.91c-34.68-0.59-62.73-28.1-62.38-61.19c0.38-36.37,28.64-64.61,63.82-63.78
            c35.03,0.83,61.75,28.96,61.26,64.49C138.15,500.05,110.73,526.5,75.94,525.91z"/>
    </g>
</g>
</svg>